<?xml version="1.0" encoding="UTF-8" standalone="no"?>
<svg
   id="Layer_1"
   x="0"
   y="0"
   version="1.1"
   viewBox="0 0 107.9 168.8"
   xml:space="preserve"
   sodipodi:docname="logo.svg"
   width="107.9"
   height="168.8"
   inkscape:version="1.1.1 (c3084ef, 2021-09-22)"
   xmlns:inkscape="http://www.inkscape.org/namespaces/inkscape"
   xmlns:sodipodi="http://sodipodi.sourceforge.net/DTD/sodipodi-0.dtd"
   xmlns="http://www.w3.org/2000/svg"
   xmlns:svg="http://www.w3.org/2000/svg"><defs
     id="defs51" /><sodipodi:namedview
     id="namedview49"
     pagecolor="#ffffff"
     bordercolor="#666666"
     borderopacity="1.0"
     inkscape:pageshadow="2"
     inkscape:pageopacity="0.0"
     inkscape:pagecheckerboard="0"
     showgrid="false"
     fit-margin-top="0"
     fit-margin-left="0"
     fit-margin-right="0"
     fit-margin-bottom="0"
     inkscape:zoom="1.4076355"
     inkscape:cx="193.58705"
     inkscape:cy="84.538933"
     inkscape:window-width="1512"
     inkscape:window-height="916"
     inkscape:window-x="0"
     inkscape:window-y="38"
     inkscape:window-maximized="1"
     inkscape:current-layer="Layer_1_1_" /><style
     id="style9">.st0{enable-background:new}.st1{fill:#333}.st2{fill:#00ea90}</style><g
     id="Layer_1_1_"><path
       id="XMLID_9_"
       fill="#494949"
       d="M 54.1,39.1 0,65.3 V 25.8 L 54.1,0 Z" /><path
       id="XMLID_8_"
       fill="#0ca579"
       d="m 54.1,0 53.8,25.8 V 65.3 L 54.1,39.1 Z" /><g
       id="XMLID_6_"><g
         id="XMLID_7_"><path
           d="M 44.4,47.3 0,25.8 v 39.7 l 3.2,1.5 41,19.7 3.8,1.6 6.1,2.9 V 52 Z"
           class="st1"
           id="path33" /><path
           fill="#3d3d3d"
           d="m 0,64.6 v 39.7 l 3.2,1.5 41,19.5 9.9,4.7 V 90.9 l -9.7,-4.7 -3.8,-1.7 z"
           id="path35" /><path
           fill="#4c4c4c"
           d="M 0,103.3 V 143 l 54.1,25.8 v -39.1 l -13.5,-6.6 z"
           id="path37" /><path
           d="m 54.1,91.2 5.8,-2.9 3.8,-1.6 41.2,-19.7 3,-1.5 V 25.8 L 63.7,47.3 54.1,52 v 33.5 z"
           class="st2"
           id="path39" /><path
           fill="#00d880"
           d="m 54.1,130 9.8,-4.7 41,-19.5 3,-1.5 V 64.6 l -40.5,19.9 -3.7,1.7 -9.6,4.7 v 29.7 z"
           id="path41" /><path
           fill="#00cc74"
           d="M 54.1,168.8 107.9,143 v -39.7 l -40.5,19.8 -13.3,6.6 z"
           id="path43" /></g></g></g></svg>
