<?xml version="1.0" encoding="utf-8"?>
<!-- Generator: Adobe Illustrator 21.0.2, SVG Export Plug-In . SVG Version: 6.00 Build 0)  -->
<svg version="1.1" id="Layer_1" xmlns="http://www.w3.org/2000/svg" xmlns:xlink="http://www.w3.org/1999/xlink" x="0px" y="0px"
	 viewBox="0 0 812 168.8" style="enable-background:new 0 0 812 168.8;" xml:space="preserve">
<style type="text/css">
	.st0{enable-background:new    ;}
	.st1{fill:#333333;}
	.st2{fill:#00EA90;}
	.st3{fill:#494949;}
	.st4{fill:#0CA579;}
	.st5{fill:#3D3D3D;}
	.st6{fill:#4C4C4C;}
	.st7{fill:#00D880;}
	.st8{fill:#00CC74;}
	.st9{display:none;}
	.st10{display:inline;}
</style>
<g id="Layer_1_1_">
	<g class="st0">
		<path class="st1" d="M204.1,35.2c10.9,0,19.1,2.4,24.6,7.1c5.5,4.8,8.3,11.6,8.3,20.4c0,4.1-0.8,7.8-2.3,11.2
			c-1.5,3.4-3.7,6.3-6.6,8.8c-2.8,2.5-6.3,4.4-10.4,5.8c-4.1,1.4-8.6,2.1-13.7,2.1h-17.2V128h-6.8V35.2H204.1z M204.1,85.2
			c4.1,0,7.7-0.6,10.9-1.7c3.2-1.1,6-2.7,8.2-4.7c2.2-2,4-4.4,5.2-7.1c1.2-2.7,1.8-5.7,1.8-8.9c0-7.1-2.2-12.6-6.6-16.5
			c-4.4-3.8-10.9-5.8-19.6-5.8h-17.2v44.7H204.1z"/>
	</g>
	<g>
		<g class="st0">
			<path class="st2" d="M656,123.2c4.5,0,8.4-0.8,12-2.3c3.5-1.6,6.5-3.7,8.9-6.5c2.4-2.8,4.3-6,5.6-9.7c1.3-3.7,1.9-7.8,1.9-12.1
				V35.2h6.7v57.3c0,5.1-0.8,9.9-2.4,14.3c-1.6,4.4-3.9,8.3-7,11.6c-3,3.3-6.7,5.9-11.1,7.8c-4.3,1.9-9.2,2.8-14.6,2.8
				c-5.4,0-10.3-0.9-14.6-2.8c-4.3-1.9-8-4.5-11.1-7.8c-3-3.3-5.4-7.2-7-11.6c-1.6-4.4-2.4-9.2-2.4-14.3V35.2h6.8v57.3
				c0,4.3,0.6,8.4,1.9,12.1s3.1,7,5.6,9.7s5.4,4.9,8.9,6.5C647.6,122.4,651.6,123.2,656,123.2z"/>
		</g>
	</g>
	<g>
		<g class="st0">
			<path class="st2" d="M528.7,128H523c-0.7,0-1.4-0.1-1.9-0.4c-0.5-0.2-1-0.7-1.4-1.3l-29.8-37.6c-0.4-0.5-0.7-0.9-1.1-1.2
				c-0.4-0.3-0.8-0.6-1.2-0.8c-0.5-0.2-1-0.3-1.6-0.4c-0.6-0.1-1.4-0.1-2.3-0.1h-12.1V128h-6.8V35.2h23.7c10.7,0,18.6,2.1,24,6.2
				c5.3,4.1,8,10.2,8,18.2c0,3.5-0.6,6.8-1.8,9.7c-1.2,2.9-3,5.5-5.3,7.7c-2.3,2.2-5.1,4-8.3,5.4c-3.3,1.4-6.9,2.3-11,2.8
				c1,0.7,2,1.5,2.8,2.6L528.7,128z M487.6,81c4.1,0,7.8-0.5,11-1.5c3.3-1,6-2.4,8.3-4.2c2.2-1.8,4-4,5.1-6.6
				c1.2-2.6,1.8-5.5,1.8-8.7c0-6.6-2.2-11.5-6.5-14.7s-10.6-4.8-18.8-4.8h-17V81H487.6z"/>
		</g>
	</g>
	<g class="st0">
		<path class="st1" d="M343.6,89.7V128h-6.7V89.7l-34.3-54.5h5.9c0.6,0,1.1,0.1,1.5,0.4c0.4,0.3,0.7,0.7,1,1.2l26.5,42.6
			c0.6,1,1.1,2,1.6,2.9c0.5,0.9,0.9,1.9,1.2,2.8c0.3-0.9,0.7-1.8,1.2-2.8c0.4-0.9,0.9-1.9,1.5-2.9l26.5-42.6c0.2-0.5,0.5-0.9,1-1.2
			c0.4-0.3,0.9-0.5,1.5-0.5h5.9L343.6,89.7z"/>
	</g>
	<g>
		<g class="st0">
			<path class="st2" d="M805.7,46.5c-0.4,0.7-1,1.1-1.7,1.1c-0.6,0-1.3-0.4-2.2-1.2c-0.9-0.8-2.1-1.7-3.6-2.7
				c-1.5-1-3.4-1.9-5.7-2.7s-5.1-1.2-8.5-1.2c-3.4,0-6.3,0.5-8.9,1.4c-2.6,1-4.7,2.3-6.4,3.9c-1.7,1.7-3,3.6-3.9,5.8
				c-0.9,2.2-1.3,4.5-1.3,6.9c0,3.1,0.7,5.7,2,7.8c1.3,2.1,3.1,3.8,5.3,5.2c2.2,1.4,4.7,2.7,7.4,3.6c2.8,1,5.6,2,8.6,2.9
				c2.9,1,5.8,2,8.6,3.2c2.8,1.2,5.3,2.6,7.4,4.4c2.2,1.7,3.9,3.9,5.3,6.5c1.3,2.6,2,5.7,2,9.5c0,3.9-0.7,7.5-2,11
				c-1.3,3.4-3.3,6.4-5.8,8.9c-2.5,2.5-5.6,4.5-9.3,6c-3.7,1.5-7.9,2.2-12.6,2.2c-6.1,0-11.4-1.1-15.8-3.2
				c-4.4-2.2-8.3-5.1-11.6-8.9l1.8-2.9c0.5-0.7,1.1-1,1.8-1c0.4,0,0.9,0.3,1.5,0.8c0.6,0.5,1.4,1.2,2.2,1.9c0.9,0.8,1.9,1.6,3.1,2.5
				c1.2,0.9,2.6,1.7,4.3,2.5c1.6,0.8,3.5,1.4,5.6,1.9s4.5,0.8,7.1,0.8c3.7,0,6.9-0.6,9.8-1.7c2.9-1.1,5.3-2.6,7.3-4.6
				c2-1.9,3.5-4.2,4.6-6.8c1-2.6,1.6-5.5,1.6-8.5c0-3.3-0.7-6-2-8.1c-1.3-2.1-3.1-3.9-5.3-5.3s-4.7-2.6-7.4-3.6
				c-2.8-1-5.6-1.9-8.6-2.8c-2.9-0.9-5.8-1.9-8.6-3.1c-2.8-1.1-5.3-2.6-7.4-4.4c-2.2-1.8-3.9-4-5.3-6.6c-1.3-2.6-2-6-2-9.9
				c0-3.1,0.6-6.1,1.8-9s2.9-5.4,5.2-7.6c2.3-2.2,5.1-4,8.4-5.3c3.3-1.3,7.2-2,11.4-2c4.8,0,9.1,0.8,12.9,2.3
				c3.8,1.5,7.3,3.9,10.5,7L805.7,46.5z"/>
		</g>
	</g>
	<g id="XMLID_9_">
		<polygon class="st3" points="54.1,39.1 0,65.3 0,25.8 54.1,0 		"/>
	</g>
	<g id="XMLID_8_">
		<polygon class="st4" points="54.1,0 107.9,25.8 107.9,65.3 54.1,39.1 		"/>
	</g>
	<g id="XMLID_6_">
		<g id="XMLID_7_">
			<polygon class="st1" points="44.4,47.3 0,25.8 0,65.5 3.2,67 44.2,86.7 48,88.3 54.1,91.2 54.1,85.5 54.1,81.8 54.1,52 			"/>
			<polygon class="st5" points="0,64.6 0,104.2 0,104.3 3.2,105.8 44.2,125.3 54.1,130 54.1,120.6 54.1,90.9 44.4,86.2 40.6,84.5 
							"/>
			<polygon class="st6" points="0,103.3 0,143 54.1,168.8 54.1,129.7 40.6,123.1 			"/>
			<polygon class="st2" points="54.1,91.2 59.9,88.3 63.7,86.7 104.9,67 107.9,65.5 107.9,25.8 63.7,47.3 54.1,52 54.1,81.8 
				54.1,85.5 			"/>
			<polygon class="st7" points="54.1,130 63.9,125.3 104.9,105.8 107.9,104.3 107.9,104.2 107.9,64.6 67.4,84.5 63.7,86.2 
				54.1,90.9 54.1,120.6 			"/>
			<polygon class="st8" points="54.1,168.8 107.9,143 107.9,103.3 67.4,123.1 54.1,129.7 			"/>
			<path class="st4" d="M67.4,131"/>
			<path class="st4" d="M107.9,111.2"/>
		</g>
	</g>
</g>
<g id="Layer_2" class="st9">
	<g class="st10">
		<g id="XMLID_20_">
			<polygon class="st3" points="54.3,-152 0.2,-125.8 0.2,-165.3 54.3,-191.2 			"/>
		</g>
		<g id="XMLID_19_">
			<polygon class="st4" points="54.3,-191.2 108.1,-165.3 108.1,-125.8 54.3,-152 			"/>
		</g>
		<g id="XMLID_11_">
			<g id="XMLID_1_">
				<polygon class="st1" points="44.6,-143.8 0.2,-165.3 0.2,-125.6 3.4,-124.1 44.4,-104.5 48.1,-102.8 54.3,-100 54.3,-105.6 
					54.3,-109.3 54.3,-139.1 				"/>
				<polygon class="st1" points="0.2,-122.6 0.2,-83.1 0.2,-82.9 3.4,-81.4 44.4,-62 54.3,-57.3 54.3,-66.6 54.3,-96.4 44.6,-101.1 
					40.8,-102.8 				"/>
				<polygon class="st3" points="3.4,-124.1 44.4,-104.5 40.8,-102.8 0.2,-122.6 				"/>
				<polygon class="st1" points="0.2,-79.9 0.2,-40.2 54.3,-14.4 54.3,-53.5 40.8,-60.1 				"/>
				<polygon class="st3" points="44.4,-62 40.8,-60.1 0.2,-79.9 3.4,-81.4 				"/>
				<polygon class="st2" points="54.3,-100 60.1,-102.8 63.9,-104.5 105.1,-124.1 108.1,-125.6 108.1,-165.3 63.9,-143.8 
					54.3,-139.1 54.3,-109.3 54.3,-105.6 				"/>
				<polygon class="st2" points="54.3,-57.3 64.1,-62 105.1,-81.4 108.1,-82.9 108.1,-83.1 108.1,-122.6 67.6,-102.8 63.9,-101.1 
					54.3,-96.4 54.3,-66.6 				"/>
				<polygon class="st2" points="54.3,-14.4 108.1,-40.2 108.1,-79.9 67.6,-60.1 54.3,-53.5 				"/>
				<polygon class="st4" points="108.1,-79.9 67.6,-60.1 64.1,-62 105.1,-81.4 				"/>
				<polygon class="st4" points="108.1,-122.6 67.6,-102.8 63.9,-104.5 105.1,-124.1 				"/>
			</g>
		</g>
	</g>
</g>
</svg>
